#!OML:ASF F:\VICON\USERDATA\INSTALL\rory3\rory3.ASF
:FULLY-SPECIFIED
:DEGREES
2133
root 2.03418 17.4756 6.85572 350.229 -115.889 -352.03
lowerback 7.54291 -1.80218 -4.91968
upperback -6.01695 -3.40273 -2.10936
thorax -10.5585 -1.43567 1.06036
lowerneck -11.2187 -6.50671 -18.3318
upperneck -12.3147 -6.78064 15.7047
head -0.592758 -3.18143 7.66617
rclavicle -4.8901e-014 -5.40694e-014
rhumerus 90.1629 -45.9653 -44.3686
rradius 29.729
rwrist 8.75724
rhand -27.9679 -1.07574
rfingers 7.12502
rthumb -1.35489 -31.0512
lclavicle -4.8901e-014 -5.40694e-014
lhumerus 45.3376 28.0577 19.7896
lradius 62.8831
lwrist 22.0894
lhand -21.8058 24.5254
lfingers 7.12502
lthumb 4.5963 54.4555
rfemur -17.5781 -12.3125 10.6551
rtibia 57.7828
rfoot 5.14266 8.93624
rtoes 3.36674
lfemur -2.77341 -2.12307 -12.7976
ltibia 37.5165
lfoot -18.3867 -0.347647
ltoes -29.9198
2134
root 2.02233 17.4888 6.8747 349.766 -115.811 -351.587
lowerback 7.58941 -1.79017 -4.86052
upperback -6.00783 -3.38209 -2.12043
thorax -10.5808 -1.42958 1.01404
lowerneck -11.0969 -6.53578 -18.3103
upperneck -12.2958 -6.83377 15.7892
head -0.591323 -3.21196 7.68848
rclavicle 3.81667e-014 3.65764e-014
rhumerus 90 -46.001 -44.4512
rradius 29.5201
rwrist 8.71525
rhand -27.963 -1.31649
rfingers 7.12502
rthumb -1.35014 -31.292
lclavicle 3.81667e-014 3.65764e-014
lhumerus 45.2173 26.7939 19.9494
lradius 63.6486
lwrist 21.8873
lhand -21.6188 24.1056
lfingers 7.12502
lthumb 4.77688 54.0317
rfemur -17.8999 -12.2708 10.5596
rtibia 58.0147
rfoot 4.01941 8.17051
rtoes 1.88465
lfemur -2.57109 -2.43969 -12.7768
ltibia 37.2286
lfoot -18.2371 0.318195
ltoes -30.1263
2135
root 2.01097 17.5107 6.88782 349.148 -115.764 -350.97
lowerback 7.59882 -1.76316 -4.75829
upperback -5.9879 -3.32951 -2.11179
thorax -10.5706 -1.41099 0.958028
lowerneck -10.9411 -6.59546 -18.3586
upperneck -12.39 -6.92409 15.9338
head -0.616305 -3.26205 7.74395
rclavicle -2.42517e-014 6.36111e-015
rhumerus 89.8642 -46.0846 -44.4559
rradius 29.1956
rwrist 8.72129
rhand -27.8414 -1.50207
rfingers 7.12502
rthumb -1.23277 -31.4783
lclavicle -2.42517e-014 6.36111e-015
lhumerus 45.0365 25.6381 20.1052
lradius 64.3227
lwrist 21.2964
lhand -21.2135 23.0206
lfingers 7.12502
lthumb 5.16821 52.9376
rfemur -18.1728 -12.2056 10.5893
rtibia 58.1335
rfoot 2.8748 6.99489
rtoes 1.62622
lfemur -2.38687 -2.75981 -12.6235
ltibia 36.9409
lfoot -17.9562 0.530761
ltoes -30.3499
2136
root 2.00128 17.5421 6.89521 348.752 -115.73 -350.585
lowerback 7.59748 -1.73522 -4.82561
upperback -5.96504 -3.29876 -2.11816
thorax -10.5429 -1.39212 0.983283
lowerneck -11.0644 -6.69559 -18.1882
upperneck -12.2848 -7.06151 15.9082
head -0.550379 -3.33313 7.6899
rclavicle 8.34896e-014 1.59028e-015
rhumerus 89.8395 -46.1255 -44.5278
rradius 28.7797
rwrist 8.72326
rhand -27.8923 -1.42304
rfingers 7.12502
rthumb -1.28188 -31.3989
lclavicle 8.34896e-014 1.59028e-015
lhumerus 44.5671 24.4425 19.898
lradius 65.1209
lwrist 20.4602
lhand -21.4835 22.6661
lfingers 7.12502
lthumb 4.90749 52.5893
rfemur -18.4572 -12.1965 10.5396
rtibia 58.1632
rfoot 1.63337 5.39347
rtoes 2.04021
lfemur -2.20376 -3.11842 -12.516
ltibia 36.6582
lfoot -17.5485 0.112819
ltoes -29.516
2137
root 1.99198 17.5829 6.89642 348.474 -115.699 -350.279
lowerback 7.60686 -1.70156 -4.95034
upperback -6.03301 -3.2834 -2.16386
thorax -10.6235 -1.37685 1.00277
lowerneck -11.2667 -6.80991 -17.9308
upperneck -11.9768 -7.21925 15.7955
head -0.418323 -3.41065 7.58263
rclavicle -5.04913e-014 -1.59028e-014
rhumerus 89.2987 -46.1518 -44.1698
rradius 28.5451
rwrist 8.41665
rhand -27.8459 -1.60756
rfingers 7.12502
rthumb -1.23704 -31.5837
lclavicle -5.04913e-014 -1.59028e-014
lhumerus 43.9438 23.064 19.4726
lradius 66.069
lwrist 19.8889
lhand -21.9211 22.779
lfingers 7.12502
lthumb 4.48495 52.7115
rfemur -18.7749 -12.2695 10.4994
rtibia 58.0986
rfoot 0.529124 3.48846
rtoes 2.53247
lfemur -2.09459 -3.44525 -12.3762
ltibia 36.3923
lfoot -16.9418 -0.459709
ltoes -28.4334
2138
root 1.9824 17.6367 6.89242 347.763 -115.68 -349.514
lowerback 7.64474 -1.66099 -4.86247
upperback -6.10856 -3.23154 -2.19322
thorax -10.7399 -1.3574 0.916672
lowerneck -11.0559 -6.80634 -17.8936
upperneck -12.0839 -7.23889 15.9774
head -0.466409 -3.43061 7.64282
rclavicle -3.18055e-014 2.54444e-014
rhumerus 88.4666 -46.2413 -43.6008
rradius 28.4133
rwrist 8.22319
rhand -27.9106 -1.86809
rfingers 7.12502
rthumb -1.29958 -31.8439
lclavicle -3.18055e-014 2.54444e-014
lhumerus 43.4765 21.6542 19.1108
lradius 66.9841
lwrist 19.5364
lhand -22.1744 22.6195
lfingers 7.12502
lthumb 4.24035 52.557
rfemur -19.0345 -12.3288 10.7232
rtibia 57.9157
rfoot -0.290733 1.72353
rtoes 2.72256
lfemur -1.9793 -3.64778 -11.9793
ltibia 36.0917
lfoot -16.222 -0.925266
ltoes -28.5164
